<svg id="Android" xmlns="http://www.w3.org/2000/svg" viewBox="0 0 800 800"><defs><style>.cls-1,.cls-2{fill:none;stroke:#35f2ed;stroke-linecap:round;stroke-width:6px;}.cls-1{stroke-miterlimit:10;}.cls-2{stroke-linejoin:bevel;}</style></defs><title>android</title><rect class="cls-1" x="146.77" y="50" width="206.45" height="400"/><line class="cls-1" x1="224.19" y1="75.81" x2="275.81" y2="75.81"/><line class="cls-1" x1="146.77" y1="372.58" x2="353.23" y2="372.58"/><line class="cls-1" x1="146.77" y1="101.61" x2="353.23" y2="101.61"/><circle class="cls-2" cx="248.75" cy="413.89" r="12.9"/><circle class="cls-1" cx="170.97" cy="629.03" r="29.03"/><circle class="cls-1" cx="74.19" cy="699.19" r="24.19"/><circle class="cls-1" cx="163.71" cy="730.65" r="19.35"/><line class="cls-1" x1="144.35" y1="728.23" x2="95.97" y2="708.87"/><line class="cls-1" x1="93.55" y1="682.26" x2="146.77" y2="648.39"/><circle class="cls-1" cx="600" cy="189.14" r="6.45"/><path class="cls-1" d="M621,192.4c-.05-12.5-9.39-22.62-21-22.62s-21,10.12-21,22.62c0,16.16,20.94,41.9,20.94,41.9S621,208.56,621,192.4Z"/><polyline class="cls-1" points="581.99 217.74 567.74 217.74 550 250 600 250 650 250 632.26 217.74 617.48 217.74"/><path class="cls-1" d="M592.61,637.1h68.68a38.71,38.71,0,0,0,0-77.42c0-53.45-46.06-96.78-101.29-96.78-48.87,0-93.23,32.58-101.94,77.42H450c-27.62,0-50,21.67-50,48.39s20.77,48.39,48.39,48.39H592.61"/></svg>