<svg id="Marketer" xmlns="http://www.w3.org/2000/svg" viewBox="0 0 800 800"><defs><style>.cls-1{fill:none;stroke:#35f2ed;stroke-linecap:round;stroke-miterlimit:10;stroke-width:6px;}</style></defs><title>marketing</title><path class="cls-1" d="M398.38,275.82a174.19,174.19,0,1,1-174.19-174.2V275.81Z"/><path class="cls-1" d="M450,224.2A174.18,174.18,0,0,0,275.81,50V224.2Z"/><rect class="cls-1" x="601.61" y="195.16" width="19.35" height="54.84"/><rect class="cls-1" x="550" y="211.29" width="19.35" height="38.71"/><rect class="cls-1" x="575.81" y="150" width="19.35" height="100"/><circle class="cls-1" cx="431.89" cy="583.75" r="14.46"/><circle class="cls-1" cx="595.8" cy="439.12" r="14.46"/><circle class="cls-1" cx="509.02" cy="660.88" r="14.46"/><circle class="cls-1" cx="668.11" cy="569.28" r="14.46"/><line class="cls-1" x1="605.44" y1="448.76" x2="663.29" y2="554.82"/><line class="cls-1" x1="441.53" y1="593.39" x2="494.56" y2="651.24"/><line class="cls-1" x1="518.66" y1="646.42" x2="586.16" y2="448.76"/><circle class="cls-1" cx="153.81" cy="703.81" r="46.19"/><circle class="cls-1" cx="153.81" cy="703.81" r="31.6"/><polyline class="cls-1" points="120.5 734.65 50 734.65 50 749.23 139.95 749.23 139.95 746.8"/><polyline class="cls-1" points="113.21 720.06 54.86 720.06 54.86 734.65 120.5 734.65"/><polyline class="cls-1" points="110.78 705.47 59.72 705.47 59.72 720.06 113.21 720.06"/><polyline class="cls-1" points="110.78 690.89 50 690.89 50 705.47 110.78 705.47"/><polyline class="cls-1" points="118.07 676.3 54.86 676.3 54.86 690.89 110.78 690.89"/><polyline class="cls-1" points="132.66 661.72 50 661.72 50 676.3 118.07 676.3"/><polyline class="cls-1" points="144.81 659.28 144.81 647.13 54.86 647.13 54.86 661.72 132.66 661.72"/><rect class="cls-1" x="50" y="632.54" width="89.95" height="14.59"/></svg>